<svg width="120" height="108" viewBox="0 0 120 108" fill="none" xmlns="http://www.w3.org/2000/svg">
<path d="M101.723 0.94931H19.9277C17.5986 0.94931 15.7104 2.83744 15.7104 5.16657V102.818C15.7104 105.147 17.5986 107.035 19.9277 107.035H101.723C104.052 107.035 105.94 105.147 105.94 102.818V5.16657C105.94 2.83744 104.052 0.94931 101.723 0.94931Z" fill="white"/>
<path d="M101.73 107.804H19.9277C18.6086 107.8 17.3446 107.275 16.4118 106.342C15.479 105.409 14.9532 104.145 14.9492 102.826V5.16656C14.9532 3.84812 15.4793 2.58495 16.4123 1.65338C17.3453 0.721806 18.6093 0.197685 19.9277 0.195679H101.73C103.049 0.197685 104.313 0.721806 105.246 1.65338C106.179 2.58495 106.705 3.84812 106.709 5.16656V102.826C106.705 104.145 106.179 105.409 105.246 106.342C104.313 107.275 103.05 107.8 101.73 107.804V107.804ZM19.9277 1.71816C19.0124 1.71815 18.1345 2.08122 17.4866 2.72771C16.8387 3.37419 16.4737 4.25129 16.4717 5.16656V102.826C16.4737 103.742 16.8385 104.62 17.4862 105.267C18.1339 105.915 19.0117 106.28 19.9277 106.282H101.73C102.646 106.28 103.524 105.915 104.172 105.267C104.82 104.62 105.184 103.742 105.186 102.826V5.16656C105.184 4.25129 104.819 3.37419 104.171 2.72771C103.524 2.08122 102.646 1.71815 101.73 1.71816H19.9277Z" fill="#093F68"/>
<path d="M19.9277 0.94931H101.73C102.849 0.94931 103.922 1.39363 104.712 2.18452C105.503 2.97541 105.948 4.04808 105.948 5.16657V12.5277H15.7104V5.16657C15.7104 4.04808 16.1548 2.97541 16.9456 2.18452C17.7365 1.39363 18.8092 0.94931 19.9277 0.94931V0.94931Z" fill="#D0BCFF"/>
<path d="M105.948 13.2966H15.7105C15.5086 13.2966 15.3149 13.2164 15.1722 13.0736C15.0294 12.9309 14.9492 12.7372 14.9492 12.5354V5.16656C14.9532 3.84812 15.4793 2.58495 16.4123 1.65338C17.3453 0.721806 18.6093 0.197685 19.9277 0.195679H101.73C103.049 0.197685 104.313 0.721806 105.246 1.65338C106.179 2.58495 106.705 3.84812 106.709 5.16656V12.5354C106.709 12.6353 106.689 12.7343 106.651 12.8267C106.613 12.919 106.557 13.0029 106.486 13.0736C106.415 13.1443 106.331 13.2004 106.239 13.2386C106.147 13.2769 106.048 13.2966 105.948 13.2966ZM16.4717 11.7741H105.186V5.16656C105.184 4.25129 104.819 3.37419 104.171 2.72771C103.524 2.08122 102.646 1.71815 101.73 1.71816H19.9277C19.0124 1.71815 18.1345 2.08122 17.4866 2.72771C16.8387 3.37419 16.4737 4.25129 16.4717 5.16656V11.7741Z" fill="#093F68"/>
<path d="M23.3756 8.36379C24.4098 8.36379 25.2482 7.52538 25.2482 6.49115C25.2482 5.45691 24.4098 4.6185 23.3756 4.6185C22.3413 4.6185 21.5029 5.45691 21.5029 6.49115C21.5029 7.52538 22.3413 8.36379 23.3756 8.36379Z" fill="#093F68"/>
<path d="M28.5831 8.36379C29.6173 8.36379 30.4557 7.52538 30.4557 6.49115C30.4557 5.45691 29.6173 4.6185 28.5831 4.6185C27.5489 4.6185 26.7104 5.45691 26.7104 6.49115C26.7104 7.52538 27.5489 8.36379 28.5831 8.36379Z" fill="#093F68"/>
<path d="M33.7823 8.36379C34.8165 8.36379 35.655 7.52538 35.655 6.49115C35.655 5.45691 34.8165 4.6185 33.7823 4.6185C32.7481 4.6185 31.9097 5.45691 31.9097 6.49115C31.9097 7.52538 32.7481 8.36379 33.7823 8.36379Z" fill="#093F68"/>
<path d="M46.0914 37.0396H3.97208C2.95466 37.0396 2.12988 37.8644 2.12988 38.8818V50.9474C2.12988 51.9649 2.95466 52.7896 3.97208 52.7896H46.0914C47.1088 52.7896 47.9336 51.9649 47.9336 50.9474V38.8818C47.9336 37.8644 47.1088 37.0396 46.0914 37.0396Z" fill="#FFBC0E"/>
<path d="M46.0836 53.528H3.97191C3.28997 53.5181 2.63898 53.2418 2.15815 52.7581C1.67732 52.2744 1.40482 51.6218 1.39893 50.9398V38.8818C1.39892 38.1906 1.67297 37.5276 2.16099 37.0382C2.64901 36.5487 3.31119 36.2728 4.00236 36.2708H46.0836C46.7748 36.2728 47.437 36.5487 47.925 37.0382C48.413 37.5276 48.6871 38.1906 48.6871 38.8818V50.9398C48.681 51.627 48.4044 52.2842 47.917 52.7687C47.4296 53.2532 46.7709 53.526 46.0836 53.528V53.528ZM3.97191 37.7704C3.68452 37.7724 3.4096 37.888 3.20709 38.0919C3.00459 38.2958 2.89095 38.5716 2.89095 38.859V50.9398C2.89095 51.2272 3.00459 51.5029 3.20709 51.7069C3.4096 51.9108 3.68452 52.0264 3.97191 52.0284H46.0836C46.371 52.0264 46.6459 51.9108 46.8484 51.7069C47.051 51.5029 47.1646 51.2272 47.1646 50.9398V38.8818C47.1646 38.5944 47.051 38.3187 46.8484 38.1147C46.6459 37.9108 46.371 37.7952 46.0836 37.7932L3.97191 37.7704Z" fill="#093F68"/>
<path d="M7.16138 44.9108C7.15909 44.3895 7.25729 43.8725 7.45064 43.3883C7.632 42.9437 7.90425 42.5418 8.24994 42.2084C8.59884 41.8731 9.0136 41.6139 9.46793 41.4472C10.4666 41.1021 11.5522 41.1021 12.5509 41.4472C13.0053 41.6139 13.42 41.8731 13.7689 42.2084C14.1146 42.5418 14.3869 42.9437 14.5682 43.3883C14.9536 44.3878 14.9536 45.4948 14.5682 46.4942C14.3908 46.941 14.118 47.3436 13.7689 47.6741C13.42 48.0095 13.0053 48.2687 12.5509 48.4354C11.5522 48.7805 10.4666 48.7805 9.46793 48.4354C9.0136 48.2687 8.59884 48.0095 8.24994 47.6741C7.90084 47.3436 7.62806 46.941 7.45064 46.4942C7.24944 45.991 7.15109 45.4526 7.16138 44.9108ZM8.79043 44.9108C8.78632 45.2251 8.84052 45.5374 8.95028 45.8319C9.04141 46.116 9.19486 46.376 9.39941 46.5932C9.59542 46.8018 9.83436 46.9654 10.0997 47.0727C10.6837 47.3061 11.3351 47.3061 11.9191 47.0727C12.1845 46.9654 12.4234 46.8018 12.6195 46.5932C12.824 46.376 12.9775 46.116 13.0686 45.8319C13.2819 45.239 13.2819 44.5903 13.0686 43.9973C12.9743 43.7147 12.8213 43.4553 12.6195 43.2361C12.4234 43.0275 12.1845 42.8639 11.9191 42.7565C11.3332 42.5335 10.6857 42.5335 10.0997 42.7565C9.83436 42.8639 9.59542 43.0275 9.39941 43.2361C9.1976 43.4553 9.04453 43.7147 8.95028 43.9973C8.84178 44.2895 8.7876 44.5991 8.79043 44.9108V44.9108Z" fill="#093F68"/>
<path d="M16.5476 44.9108C16.5453 44.3895 16.6435 43.8725 16.8369 43.3883C17.0182 42.9437 17.2905 42.5418 17.6362 42.2084C17.9851 41.8731 18.3998 41.6139 18.8542 41.4472C19.8413 41.1108 20.912 41.1108 21.8991 41.4472C22.3534 41.6139 22.7682 41.8731 23.1171 42.2084C23.4491 42.5454 23.7082 42.947 23.8783 43.3883C24.2637 44.3878 24.2637 45.4948 23.8783 46.4942C23.7121 46.9375 23.4525 47.3399 23.1171 47.6741C22.7682 48.0095 22.3534 48.2687 21.8991 48.4354C20.912 48.7718 19.8413 48.7718 18.8542 48.4354C18.3998 48.2687 17.9851 48.0095 17.6362 47.6741C17.2871 47.3436 17.0143 46.941 16.8369 46.4942C16.6357 45.991 16.5373 45.4526 16.5476 44.9108ZM18.1767 44.9108C18.1726 45.2251 18.2268 45.5374 18.3365 45.8319C18.4277 46.116 18.5811 46.376 18.7856 46.5932C18.9817 46.8018 19.2206 46.9654 19.486 47.0727C19.7729 47.1921 20.0811 47.2517 20.3919 47.2478C20.705 47.2508 21.0155 47.1913 21.3053 47.0727C21.5707 46.9654 21.8097 46.8018 22.0057 46.5932C22.2102 46.376 22.3637 46.116 22.4548 45.8319C22.6578 45.2372 22.6578 44.592 22.4548 43.9973C22.3606 43.7147 22.2075 43.4553 22.0057 43.2361C21.8097 43.0275 21.5707 42.8639 21.3053 42.7565C21.015 42.6405 20.7045 42.5836 20.3919 42.589C20.0817 42.5828 19.7734 42.6397 19.486 42.7565C19.2206 42.8639 18.9817 43.0275 18.7856 43.2361C18.5838 43.4553 18.4308 43.7147 18.3365 43.9973C18.2176 44.2876 18.1531 44.5972 18.1462 44.9108H18.1767Z" fill="#093F68"/>
<path d="M26.3145 41.3482H28.9636C29.3162 41.345 29.6682 41.3782 30.0141 41.4472C30.3212 41.5056 30.6137 41.6246 30.8743 41.7973C31.1243 41.963 31.3264 42.1914 31.4604 42.4596C31.6138 42.7879 31.6869 43.148 31.6736 43.5101C31.6837 43.8704 31.6162 44.2287 31.4756 44.5606C31.3511 44.8301 31.1598 45.0633 30.9199 45.2381C30.6664 45.4101 30.3821 45.5316 30.0826 45.5959C29.7369 45.6657 29.3848 45.6989 29.0321 45.6949H27.8902V48.481H26.3145V41.3482ZM27.8902 44.3932H28.9331C29.0714 44.3939 29.2094 44.3786 29.3442 44.3475C29.4676 44.3251 29.5861 44.2813 29.6944 44.2181C29.8 44.1528 29.8866 44.0609 29.9456 43.9516C30.0181 43.8245 30.0525 43.6791 30.0445 43.533C30.0506 43.378 30.0051 43.2254 29.9151 43.0991C29.8324 42.9868 29.7224 42.8977 29.5954 42.8402C29.4561 42.7763 29.3067 42.7377 29.1539 42.726H28.6971H27.8902V44.3932Z" fill="#093F68"/>
<path d="M37.1771 43.0915C37.0426 42.9248 36.8629 42.8006 36.6595 42.7337C36.4617 42.6617 36.2533 42.6231 36.0428 42.6195C35.9225 42.6175 35.8023 42.6303 35.6851 42.6576C35.5658 42.682 35.4505 42.723 35.3425 42.7794C35.2413 42.8367 35.1532 42.9144 35.0837 43.0077C35.0159 43.1089 34.9813 43.2286 34.9847 43.3503C34.9787 43.4468 34.9981 43.5433 35.0408 43.63C35.0835 43.7168 35.1482 43.7909 35.2283 43.8451C35.4141 43.9743 35.6198 44.072 35.8373 44.1344C36.0809 44.2181 36.3397 44.3018 36.5986 44.378C36.865 44.4614 37.1206 44.5764 37.3598 44.7205C37.6036 44.8718 37.8114 45.0744 37.9688 45.3143C38.1436 45.6166 38.2282 45.9626 38.2124 46.3115C38.2209 46.6691 38.1453 47.0237 37.9916 47.3468C37.853 47.6438 37.6471 47.9045 37.3902 48.108C37.1291 48.3077 36.8319 48.4551 36.5148 48.5419C35.7456 48.7458 34.9338 48.722 34.1778 48.4734C33.7662 48.3198 33.3886 48.0871 33.0664 47.7883L34.1854 46.5551C34.3463 46.7679 34.5549 46.94 34.7944 47.0575C35.0319 47.172 35.292 47.2318 35.5556 47.2326C35.6864 47.2324 35.8167 47.2171 35.9439 47.1869C36.0667 47.1585 36.1846 47.1124 36.2941 47.0499C36.3939 46.9937 36.4798 46.9156 36.5453 46.8215C36.6098 46.7218 36.6442 46.6054 36.6442 46.4866C36.6477 46.3874 36.6265 46.289 36.5827 46.2C36.5389 46.111 36.4737 46.0343 36.393 45.9766C36.2046 45.8398 35.9968 45.732 35.7764 45.6568L34.9695 45.398C34.6874 45.3143 34.4164 45.1967 34.1626 45.0478C33.9168 44.8997 33.7064 44.6996 33.546 44.4617C33.3665 44.175 33.2788 43.8404 33.2948 43.5025C33.2873 43.1539 33.3657 42.8088 33.5231 42.4977C33.6703 42.2147 33.8783 41.9677 34.1321 41.7745C34.391 41.5739 34.6854 41.4241 34.9999 41.333C35.331 41.235 35.6747 41.1862 36.02 41.1884C36.4148 41.1883 36.8074 41.2473 37.1847 41.3635C37.5614 41.4791 37.9092 41.6737 38.2048 41.9344L37.1771 43.0915Z" fill="#093F68"/>
<path d="M41.0366 47.6132C41.0384 47.4877 41.0642 47.3636 41.1127 47.2478C41.1586 47.1369 41.226 47.0361 41.3109 46.9512C41.3958 46.8663 41.4966 46.7989 41.6075 46.753C41.7212 46.707 41.8427 46.6837 41.9653 46.6845C42.0904 46.6837 42.2145 46.707 42.3307 46.753C42.4421 46.7981 42.5431 46.8655 42.6276 46.951C42.7106 47.0374 42.7776 47.1379 42.8255 47.2478C42.8716 47.3641 42.8949 47.4882 42.894 47.6132C42.8948 47.7358 42.8716 47.8574 42.8255 47.971C42.7776 48.0809 42.7106 48.1814 42.6276 48.2679C42.5431 48.3534 42.4421 48.4207 42.3307 48.4658C42.2145 48.5119 42.0904 48.5352 41.9653 48.5343C41.8427 48.5351 41.7212 48.5119 41.6075 48.4658C41.4966 48.4199 41.3958 48.3526 41.3109 48.2677C41.226 48.1828 41.1586 48.082 41.1127 47.971C41.0643 47.8579 41.0384 47.7363 41.0366 47.6132V47.6132ZM42.719 46.0907H41.1965V41.3482H42.719V46.0907Z" fill="#093F68"/>
<path d="M47.8802 94.7796H2.9215C2.52334 94.7803 2.13275 94.6707 1.79312 94.4629C1.45348 94.2551 1.17809 93.9572 0.9975 93.6023C0.816915 93.2475 0.738203 92.8495 0.770114 92.4526C0.802024 92.0557 0.943305 91.6754 1.17827 91.354L23.6653 60.5086C23.8652 60.2349 24.127 60.0122 24.4293 59.8588C24.7315 59.7053 25.0657 59.6253 25.4047 59.6253C25.7437 59.6253 26.0779 59.7053 26.3801 59.8588C26.6824 60.0122 26.9441 60.2349 27.1441 60.5086L49.6311 91.354C49.8664 91.676 50.0078 92.0569 50.0394 92.4545C50.071 92.8521 49.9917 93.2506 49.8102 93.6057C49.6287 93.9609 49.3521 94.2586 49.0114 94.4659C48.6706 94.6731 48.2791 94.7817 47.8802 94.7796V94.7796Z" fill="#FFBC0E"/>
<path d="M47.8803 95.5408H2.92154C2.38264 95.5419 1.85397 95.3936 1.39425 95.1125C0.934522 94.8313 0.561731 94.4281 0.317262 93.9479C0.0727934 93.4676 -0.033788 92.929 0.00936209 92.3918C0.0525122 91.8547 0.243704 91.34 0.5617 90.9049L23.0487 60.0595C23.3202 59.6897 23.675 59.3891 24.0843 59.1818C24.4936 58.9746 24.9459 58.8666 25.4047 58.8666C25.8635 58.8666 26.3158 58.9746 26.7251 59.1818C27.1344 59.3891 27.4892 59.6897 27.7608 60.0595L50.2477 90.9049C50.5657 91.34 50.7569 91.8547 50.8001 92.3918C50.8432 92.929 50.7366 93.4676 50.4922 93.9479C50.2477 94.4281 49.8749 94.8313 49.4152 95.1125C48.9555 95.3936 48.4268 95.5419 47.8879 95.5408H47.8803ZM25.4009 60.3792C25.1809 60.3757 24.9633 60.4259 24.767 60.5254C24.5707 60.6249 24.4016 60.7706 24.2743 60.9501L1.78729 91.7955C1.63537 92.0033 1.544 92.2492 1.52332 92.5058C1.50265 92.7624 1.55349 93.0197 1.67019 93.2492C1.78689 93.4786 1.9649 93.6713 2.18444 93.8057C2.40399 93.9401 2.65649 94.0111 2.91392 94.0107H47.8803C48.1377 94.0111 48.3902 93.9401 48.6098 93.8057C48.8293 93.6713 49.0073 93.4786 49.124 93.2492C49.2407 93.0197 49.2916 92.7624 49.2709 92.5058C49.2502 92.2492 49.1588 92.0033 49.0069 91.7955L26.5199 60.9577C26.3928 60.7793 26.225 60.6337 26.0304 60.5331C25.8358 60.4325 25.62 60.3797 25.4009 60.3792Z" fill="#093F68"/>
<path d="M15.619 85.5685H11.4551V83.871L15.3526 77.9409H17.5602V83.871H18.7858V85.5685H17.5602V87.4869H15.619V85.5685ZM15.619 80.5824L13.5028 83.871H15.6495L15.619 80.5824Z" fill="#093F68"/>
<path d="M20.9095 82.7139C20.9079 82.1345 20.9589 81.5562 21.0617 80.9859C21.1531 80.4273 21.3412 79.889 21.6174 79.3949C21.8732 78.9213 22.2452 78.5206 22.6984 78.2302C23.2348 77.9309 23.8388 77.7738 24.4531 77.7738C25.0673 77.7738 25.6713 77.9309 26.2077 78.2302C26.6601 78.5258 27.0295 78.9319 27.2811 79.4102C27.5573 79.9042 27.7453 80.4426 27.8368 81.0011C28.0395 82.1442 28.0395 83.3141 27.8368 84.4572C27.7428 85.0151 27.5549 85.5531 27.2811 86.0482C27.0211 86.5187 26.65 86.9186 26.2001 87.2129C25.6621 87.5074 25.0587 87.6617 24.4454 87.6617C23.8321 87.6617 23.2287 87.5074 22.6908 87.2129C22.2409 86.9186 21.8698 86.5187 21.6098 86.0482C21.3359 85.5531 21.148 85.0151 21.0541 84.4572C20.9532 83.8817 20.9048 83.2982 20.9095 82.7139V82.7139ZM22.9268 82.7139C22.9268 82.9651 22.9268 83.262 22.9648 83.6122C22.986 83.9557 23.0473 84.2955 23.1475 84.6247C23.2317 84.9297 23.3854 85.2111 23.5967 85.4468C23.8262 85.6664 24.1316 85.789 24.4492 85.789C24.7669 85.789 25.0723 85.6664 25.3018 85.4468C25.5153 85.2116 25.6717 84.9302 25.7586 84.6247C25.8588 84.2955 25.9201 83.9557 25.9413 83.6122C25.9413 83.262 25.9413 82.9651 25.9413 82.7139C25.9413 82.4627 25.9413 82.1582 25.9413 81.8081C25.9194 81.4647 25.8581 81.125 25.7586 80.7956C25.6683 80.4915 25.5124 80.2108 25.3018 79.9735C25.0697 79.7589 24.7653 79.6398 24.4492 79.6398C24.1332 79.6398 23.8288 79.7589 23.5967 79.9735C23.3885 80.2113 23.2351 80.492 23.1475 80.7956C23.048 81.125 22.9867 81.4647 22.9648 81.8081C22.942 82.1582 22.9268 82.4551 22.9268 82.7139Z" fill="#093F68"/>
<path d="M34.2851 85.5685H30.1211V83.871L34.0186 77.9409H36.2262V83.871H37.4518V85.5685H36.2262V87.4869H34.2851V85.5685ZM34.2851 80.5824L32.1612 83.871H34.3079L34.2851 80.5824Z" fill="#093F68"/>
<path d="M119.276 94.5207H55.812V39.1559L64.9849 28.0342H119.276V94.5207Z" fill="#D0BCFF"/>
<path d="M119.277 95.282H55.8125C55.6106 95.282 55.417 95.2018 55.2742 95.059C55.1315 94.9162 55.0513 94.7226 55.0513 94.5207V39.1558C55.0509 38.978 55.1129 38.8056 55.2264 38.6687L64.3612 27.547C64.4328 27.461 64.5224 27.3919 64.6237 27.3446C64.725 27.2972 64.8355 27.2727 64.9474 27.2729H119.239C119.441 27.2729 119.634 27.3531 119.777 27.4959C119.92 27.6386 120 27.8323 120 28.0342V94.5207C120 94.7162 119.925 94.9043 119.791 95.046C119.656 95.1877 119.472 95.2722 119.277 95.282V95.282ZM56.5737 93.7595H118.516V28.7954H65.3432L56.5737 39.4527V93.7595Z" fill="#093F68"/>
<path d="M68.7383 57.4941C68.5871 57.495 68.4391 57.4508 68.3131 57.3672C68.1871 57.2836 68.0888 57.1644 68.0308 57.0248C67.9729 56.8851 67.9578 56.7314 67.9875 56.5831C68.0173 56.4349 68.0905 56.2988 68.1978 56.1924L77.9189 46.4257C78.0615 46.2839 78.2544 46.2043 78.4555 46.2043C78.6566 46.2043 78.8496 46.2839 78.9922 46.4257C79.0635 46.4964 79.1202 46.5806 79.1588 46.6734C79.1975 46.7662 79.2174 46.8657 79.2174 46.9662C79.2174 47.0667 79.1975 47.1661 79.1588 47.2589C79.1202 47.3517 79.0635 47.4359 78.9922 47.5066L69.2788 57.2733C69.2077 57.3439 69.1233 57.3997 69.0306 57.4376C68.9378 57.4755 68.8385 57.4947 68.7383 57.4941V57.4941Z" fill="#093F68"/>
<path d="M78.4592 57.4941C78.3585 57.4937 78.2589 57.4733 78.1661 57.4341C78.0733 57.3949 77.9893 57.3377 77.9188 57.2657L68.1978 47.499C68.1273 47.4281 68.0715 47.3439 68.0335 47.2514C67.9956 47.1588 67.9762 47.0597 67.9766 46.9597C67.9769 46.8597 67.997 46.7607 68.0356 46.6684C68.0742 46.5761 68.1306 46.4924 68.2016 46.4219C68.2725 46.3514 68.3567 46.2956 68.4492 46.2577C68.5418 46.2197 68.6409 46.2004 68.7409 46.2007C68.8409 46.2011 68.9399 46.2211 69.0322 46.2597C69.1245 46.2983 69.2082 46.3547 69.2787 46.4257L78.9921 56.1924C79.1339 56.335 79.2135 56.528 79.2135 56.7291C79.2135 56.9302 79.1339 57.1231 78.9921 57.2657C78.8516 57.4092 78.66 57.4913 78.4592 57.4941Z" fill="#093F68"/>
<path d="M98.6629 57.4941C98.4621 57.4913 98.2706 57.4092 98.1301 57.2657C97.9883 57.1231 97.9087 56.9302 97.9087 56.7291C97.9087 56.528 97.9883 56.335 98.1301 56.1924L107.851 46.4257C107.922 46.3547 108.005 46.2983 108.098 46.2597C108.19 46.2211 108.289 46.2011 108.389 46.2007C108.489 46.2004 108.588 46.2197 108.681 46.2577C108.773 46.2956 108.857 46.3514 108.928 46.4219C108.999 46.4924 109.056 46.5761 109.094 46.6684C109.133 46.7607 109.153 46.8597 109.153 46.9597C109.154 47.0597 109.134 47.1588 109.096 47.2514C109.058 47.3439 109.003 47.4281 108.932 47.499L99.211 57.2657C99.1396 57.3386 99.0543 57.3963 98.9602 57.4356C98.866 57.4748 98.7649 57.4947 98.6629 57.4941Z" fill="#093F68"/>
<path d="M108.384 57.4941C108.283 57.4937 108.183 57.4733 108.091 57.4341C107.998 57.3949 107.914 57.3377 107.843 57.2657L98.1221 47.499C98.0508 47.4283 97.9942 47.3441 97.9555 47.2513C97.9169 47.1586 97.897 47.0591 97.897 46.9586C97.897 46.8581 97.9169 46.7586 97.9555 46.6658C97.9942 46.573 98.0508 46.4889 98.1221 46.4181C98.2648 46.2763 98.4577 46.1967 98.6588 46.1967C98.8599 46.1967 99.0529 46.2763 99.1955 46.4181L108.916 56.1848C109.024 56.2913 109.097 56.4273 109.127 56.5755C109.157 56.7238 109.141 56.8775 109.084 57.0172C109.026 57.1568 108.927 57.276 108.801 57.3596C108.675 57.4432 108.527 57.4874 108.376 57.4865L108.384 57.4941Z" fill="#093F68"/>
<path d="M83.3467 67.7632H91.9867V75.3756C91.9867 76.5203 91.532 77.6182 90.7225 78.4276C89.9131 79.2371 88.8153 79.6918 87.6705 79.6918V79.6918C86.5258 79.6918 85.4279 79.2371 84.6185 78.4276C83.809 77.6182 83.3543 76.5203 83.3543 75.3756V67.7632H83.3467Z" fill="#F56132"/>
<path d="M87.6629 80.4835C86.3169 80.4815 85.0266 79.9459 84.0748 78.9941C83.1231 78.0423 82.5875 76.752 82.5854 75.406V67.7936C82.5854 67.5918 82.6657 67.3981 82.8084 67.2554C82.9512 67.1126 83.1448 67.0324 83.3467 67.0324H91.9867C92.1886 67.0324 92.3823 67.1126 92.525 67.2554C92.6678 67.3981 92.748 67.5918 92.748 67.7936V75.406C92.746 76.7534 92.2093 78.0448 91.2559 78.9968C90.3025 79.9488 89.0102 80.4835 87.6629 80.4835V80.4835ZM84.1079 68.5244V75.3756C84.1079 76.3184 84.4825 77.2226 85.1492 77.8893C85.8158 78.556 86.7201 78.9306 87.6629 78.9306C88.6058 78.9306 89.51 78.556 90.1767 77.8893C90.8434 77.2226 91.2179 76.3184 91.2179 75.3756V68.5244H84.1079Z" fill="#093F68"/>
<path d="M87.6626 74.5002C87.4607 74.5002 87.2671 74.42 87.1243 74.2772C86.9816 74.1344 86.9014 73.9408 86.9014 73.7389V67.7632C86.9014 67.5613 86.9816 67.3677 87.1243 67.2249C87.2671 67.0822 87.4607 67.002 87.6626 67.002C87.8645 67.002 88.0581 67.0822 88.2009 67.2249C88.3436 67.3677 88.4238 67.5613 88.4238 67.7632V73.7389C88.4238 73.8389 88.4041 73.9379 88.3659 74.0302C88.3276 74.1226 88.2716 74.2065 88.2009 74.2772C88.1302 74.3479 88.0463 74.404 87.9539 74.4422C87.8616 74.4805 87.7626 74.5002 87.6626 74.5002Z" fill="#093F68"/>
<path d="M108.383 68.5244H68.7378C68.5359 68.5244 68.3423 68.4442 68.1995 68.3015C68.0568 68.1587 67.9766 67.9651 67.9766 67.7632C67.9766 67.5613 68.0568 67.3677 68.1995 67.2249C68.3423 67.0822 68.5359 67.002 68.7378 67.002H108.383C108.585 67.002 108.779 67.0822 108.921 67.2249C109.064 67.3677 109.144 67.5613 109.144 67.7632C109.144 67.9651 109.064 68.1587 108.921 68.3015C108.779 68.4442 108.585 68.5244 108.383 68.5244Z" fill="#093F68"/>
<path d="M60.5777 21.046H23.041C22.8391 21.046 22.6455 20.9658 22.5028 20.823C22.36 20.6803 22.2798 20.4866 22.2798 20.2847C22.2798 20.0828 22.36 19.8892 22.5028 19.7465C22.6455 19.6037 22.8391 19.5235 23.041 19.5235H60.5777C60.7796 19.5235 60.9732 19.6037 61.116 19.7465C61.2587 19.8892 61.3389 20.0828 61.3389 20.2847C61.3389 20.4866 61.2587 20.6803 61.116 20.823C60.9732 20.9658 60.7796 21.046 60.5777 21.046Z" fill="#DFEAEF"/>
<path d="M55.812 39.1559H64.886L64.9849 28.0342L55.812 39.1559Z" fill="white"/>
<path d="M64.8867 39.9171H55.8127C55.6671 39.9174 55.5244 39.876 55.4017 39.7978C55.2789 39.7195 55.1811 39.6077 55.12 39.4756C55.0596 39.3448 55.0375 39.1995 55.0564 39.0567C55.0752 38.9138 55.1342 38.7793 55.2265 38.6687L64.3614 27.547C64.4614 27.4263 64.5962 27.3394 64.7475 27.2982C64.8987 27.257 65.059 27.2635 65.2064 27.3168C65.3538 27.3701 65.4812 27.4676 65.5711 27.596C65.661 27.7244 65.7091 27.8774 65.7088 28.0342L65.6098 39.1635C65.6081 39.3576 65.5323 39.5438 65.3979 39.6839C65.2634 39.824 65.0806 39.9074 64.8867 39.9171ZM57.4265 38.3946H64.133L64.2092 30.1732L57.4265 38.3946Z" fill="#093F68"/>
<path d="M76.3277 21.046H68.7153C68.5134 21.046 68.3198 20.9658 68.1771 20.823C68.0343 20.6803 67.9541 20.4866 67.9541 20.2847C67.9541 20.0828 68.0343 19.8892 68.1771 19.7465C68.3198 19.6037 68.5134 19.5235 68.7153 19.5235H76.3277C76.5296 19.5235 76.7232 19.6037 76.866 19.7465C77.0088 19.8892 77.089 20.0828 77.089 20.2847C77.089 20.4866 77.0088 20.6803 76.866 20.823C76.7232 20.9658 76.5296 21.046 76.3277 21.046Z" fill="#DFEAEF"/>
<path d="M46.1824 30.4625H23.3452C23.1433 30.4625 22.9497 30.3823 22.8069 30.2395C22.6642 30.0968 22.584 29.9032 22.584 29.7013C22.584 29.4994 22.6642 29.3058 22.8069 29.163C22.9497 29.0202 23.1433 28.94 23.3452 28.94H46.1824C46.3843 28.94 46.5779 29.0202 46.7207 29.163C46.8634 29.3058 46.9436 29.4994 46.9436 29.7013C46.9436 29.9032 46.8634 30.0968 46.7207 30.2395C46.5779 30.3823 46.3843 30.4625 46.1824 30.4625Z" fill="#DFEAEF"/>
<path d="M46.1829 63.5459H38.2813C38.0794 63.5459 37.8857 63.4657 37.743 63.323C37.6002 63.1802 37.52 62.9866 37.52 62.7847C37.52 62.5828 37.6002 62.3892 37.743 62.2464C37.8857 62.1037 38.0794 62.0235 38.2813 62.0235H46.1829C46.3848 62.0235 46.5784 62.1037 46.7212 62.2464C46.864 62.3892 46.9442 62.5828 46.9442 62.7847C46.9442 62.9866 46.864 63.1802 46.7212 63.323C46.5784 63.4657 46.3848 63.5459 46.1829 63.5459V63.5459Z" fill="#DFEAEF"/>
<path d="M46.1831 71.5085H41.0371C40.8352 71.5085 40.6416 71.4283 40.4988 71.2855C40.3561 71.1428 40.2759 70.9492 40.2759 70.7473C40.2759 70.5454 40.3561 70.3517 40.4988 70.209C40.6416 70.0662 40.8352 69.986 41.0371 69.986H46.1831C46.385 69.986 46.5786 70.0662 46.7214 70.209C46.8641 70.3517 46.9443 70.5454 46.9443 70.7473C46.9443 70.9492 46.8641 71.1428 46.7214 71.2855C46.5786 71.4283 46.385 71.5085 46.1831 71.5085Z" fill="#DFEAEF"/>
<path d="M96.1812 21.046H83.3467C83.1448 21.046 82.9512 20.9658 82.8084 20.823C82.6657 20.6803 82.5854 20.4866 82.5854 20.2847C82.5854 20.0828 82.6657 19.8892 82.8084 19.7465C82.9512 19.6037 83.1448 19.5235 83.3467 19.5235H96.1812C96.3831 19.5235 96.5767 19.6037 96.7194 19.7465C96.8622 19.8892 96.9424 20.0828 96.9424 20.2847C96.9424 20.4866 96.8622 20.6803 96.7194 20.823C96.5767 20.9658 96.3831 21.046 96.1812 21.046Z" fill="#DFEAEF"/>
</svg>
